<?xml version="1.0" encoding="utf-8"?>
<!-- Generator: Adobe Illustrator 27.0.0, SVG Export Plug-In . SVG Version: 6.00 Build 0)  -->
<svg version="1.1" id="Layer_1" xmlns="http://www.w3.org/2000/svg" xmlns:xlink="http://www.w3.org/1999/xlink" x="0px" y="0px"
	 viewBox="0 0 3323.8 1567.5" style="enable-background:new 0 0 3323.8 1567.5;" xml:space="preserve">
<style type="text/css">
	.st0{fill:url(#SVGID_1_);}
	.st1{fill:url(#SVGID_00000062878689754842900520000013143590623463153832_);}
	.st2{fill:url(#SVGID_00000041265029427471780450000004741410809816893831_);}
	.st3{fill:url(#SVGID_00000020380007675729036560000005102723725650774194_);}
	.st4{fill:url(#SVGID_00000132068298239323018620000000480319719464508329_);}
	.st5{fill:url(#SVGID_00000157300133487682884090000016846481777078937789_);}
	.st6{fill:url(#SVGID_00000140008405053247601690000006305720055128558262_);}
	.st7{fill:url(#SVGID_00000082328232131717677670000015267767254031696566_);}
	.st8{fill:url(#SVGID_00000145028297825896104260000015262509765283249558_);}
	.st9{fill:url(#SVGID_00000086672885948354979770000002979428500751460542_);}
	.st10{fill:url(#SVGID_00000047035834966938481390000004694642268010767507_);}
	.st11{fill:url(#SVGID_00000007416814610727733660000002025120775767122601_);}
	.st12{fill:url(#SVGID_00000109741617028751867880000005937464912872902530_);}
	.st13{fill:url(#SVGID_00000163043971884317529260000010489483886193563282_);}
	.st14{fill:url(#SVGID_00000095318146844412680080000004993986451444649347_);}
	.st15{fill:url(#SVGID_00000034791652959899759030000005841861665190312332_);}
	.st16{fill:url(#SVGID_00000115485211106323687790000003538661584106572973_);}
	.st17{fill:#8331A7;}
	.st18{fill:#9957A5;}
</style>
<g>
	<g>
		<path class="st17" d="M1626.4,755.3c-7,18.3-17.1,33.9-30.2,46.7c-13.1,12.8-29,22.6-47.7,29.5c-18.7,6.9-39.8,10.3-63.2,10.3
			c-25.4,0-48.3-4.1-68.5-12.4c-20.2-8.3-37.4-20.2-51.5-35.7c-14.1-15.5-25-34.4-32.6-56.6c-7.6-22.3-11.4-47.4-11.4-75.4
			c0-27.5,3.8-52.3,11.4-74.5c7.6-22.2,18.4-41,32.5-56.5c14-15.5,31.1-27.4,51.1-35.8c20-8.4,42.4-12.6,67.4-12.6
			c20.2,0,38.9,2.8,56.2,8.4c17.2,5.6,32.4,13.5,45.5,23.8c13.1,10.3,23.9,22.7,32.2,37.2c8.4,14.5,13.8,30.7,16.4,48.3h-71.1
			c-5.4-17.4-14.9-30.8-28.6-40.4c-13.7-9.6-30.5-14.3-50.6-14.3c-13.7,0-26.1,2.6-37.2,7.9c-11.1,5.3-20.4,12.9-28.1,22.9
			c-7.7,9.9-13.6,22.1-17.7,36.4c-4.1,14.3-6.1,30.4-6.1,48.5c0,18.3,2.1,34.8,6.4,49.3c4.3,14.5,10.4,26.9,18.4,37.1
			c8,10.2,17.7,18,29,23.3c11.4,5.4,24.1,8.1,38.2,8.1c11.7,0,22.4-1.7,32.2-5c9.8-3.3,18.2-8,25.2-14c7-6,12.6-13.3,16.7-21.8
			s6.3-17.9,6.6-28.2l0.2-6.1h-74.2v-53.8H1637v43.6C1637,716.4,1633.4,737,1626.4,755.3z"/>
		<path class="st17" d="M1902.6,758.6c-2.7,12.3-7.4,23.4-14.1,33.3c-6.7,9.9-15.2,18.3-25.5,25.2c-10.3,7-22.2,12.3-35.7,16
			c-13.5,3.7-28.2,5.6-44.2,5.6c-19.9,0-37.7-3-53.3-9.1c-15.6-6.1-28.9-14.9-39.8-26.6c-10.9-11.6-19.2-25.8-24.9-42.5
			c-5.7-16.7-8.5-35.7-8.5-56.9c0-21.3,2.9-40.5,8.6-57.5c5.8-17,14.1-31.4,25-43.2c10.9-11.9,24.1-21,39.6-27.4
			c15.5-6.4,32.9-9.6,52.4-9.6c19.3,0,36.5,3,51.7,9c15.2,6,28,14.7,38.5,26c10.5,11.3,18.5,25.1,24,41.5
			c5.5,16.4,8.3,34.9,8.3,55.6v21.1h-179.4v3.6c0.2,9.8,1.7,18.6,4.6,26.3c2.9,7.7,7,14.3,12.1,19.8c5.1,5.5,11.3,9.6,18.6,12.6
			c7.3,2.9,15.4,4.4,24.4,4.4c13.7,0,25.1-2.3,34.2-7c9.1-4.6,15.4-11.3,19.1-20H1902.6z M1782.5,618.8c-8.1,0-15.4,1.3-22,4
			c-6.6,2.7-12.4,6.5-17.4,11.4c-5,4.9-9,10.8-12,17.7c-3,6.9-4.8,14.6-5.4,23.1H1837c-0.8-17.4-6-31.1-15.6-41.1
			C1811.7,623.8,1798.8,618.8,1782.5,618.8z"/>
		<path class="st17" d="M2020.7,509.6v64.7h54.3v54.3h-54.3v117.5c0,11.4,2.7,19.8,8.1,25.1c5.4,5.4,14,8.1,25.8,8.1
			c4.6,0,8.3-0.1,11.1-0.2c2.9-0.2,5.9-0.4,9.2-0.7v52.6c-4.3,0.8-9.4,1.5-15.5,2.1c-6.1,0.6-12.4,0.9-19.1,0.9
			c-16,0-29.5-1.3-40.8-4c-11.2-2.7-20.4-6.9-27.5-12.7c-7.1-5.8-12.3-13.1-15.5-22.2c-3.3-9-4.9-19.9-4.9-32.7V628.5H1911v-54.3
			h40.8v-64.7H2020.7z"/>
		<path class="st17" d="M2395.9,833.1h-73.5l-46.7-180.4h-4.3l-46.2,180.4h-72.5L2083,571.7h69.9l38.9,187.5h4.3l45.7-187.5h65.9
			l46,187.5h4.3l38.9-187.5h68.5L2395.9,833.1z"/>
		<path class="st17" d="M2718.4,758.6c-2.7,12.3-7.4,23.4-14.1,33.3c-6.7,9.9-15.2,18.3-25.5,25.2c-10.3,7-22.2,12.3-35.7,16
			c-13.5,3.7-28.2,5.6-44.2,5.6c-19.9,0-37.7-3-53.3-9.1c-15.6-6.1-28.9-14.9-39.8-26.6c-10.9-11.6-19.2-25.8-24.9-42.5
			c-5.7-16.7-8.5-35.7-8.5-56.9c0-21.3,2.9-40.5,8.6-57.5c5.8-17,14.1-31.4,25-43.2c10.9-11.9,24.1-21,39.6-27.4
			c15.5-6.4,32.9-9.6,52.4-9.6c19.3,0,36.5,3,51.7,9c15.2,6,28,14.7,38.5,26c10.5,11.3,18.5,25.1,24,41.5
			c5.5,16.4,8.3,34.9,8.3,55.6v21.1h-179.4v3.6c0.2,9.8,1.7,18.6,4.6,26.3c2.9,7.7,7,14.3,12.1,19.8c5.1,5.5,11.3,9.6,18.6,12.6
			c7.3,2.9,15.4,4.4,24.4,4.4c13.7,0,25.1-2.3,34.2-7c9.1-4.6,15.4-11.3,19.1-20H2718.4z M2598.3,618.8c-8.1,0-15.4,1.3-22,4
			c-6.6,2.7-12.4,6.5-17.4,11.4c-5,4.9-9,10.8-12,17.7c-3,6.9-4.8,14.6-5.4,23.1h111.4c-0.8-17.4-6-31.1-15.6-41.1
			C2627.5,623.8,2614.6,618.8,2598.3,618.8z"/>
		<path class="st17" d="M2750.2,471.9h69v361.2h-69V471.9z"/>
		<path class="st17" d="M2864,471.9h69v361.2h-69V471.9z"/>
	</g>
</g>
<g>
	<path class="st18" d="M1480.4,898.1c8.3,0,15.8,1.3,22.7,4c6.8,2.7,12.7,6.4,17.7,11.3c4.9,4.8,8.7,10.7,11.4,17.6
		c2.7,6.9,4.1,14.5,4.1,22.9c0,8.3-1.4,15.8-4.2,22.6c-2.8,6.8-6.7,12.7-11.8,17.5c-5.1,4.9-11.2,8.6-18.2,11.3
		c-7,2.7-14.8,4-23.3,4h-31.8v50h-33.7V898.1H1480.4z M1446.9,981.8h24.5c9.7,0,17.3-2.4,22.6-7.1c5.3-4.8,8-11.7,8-20.8
		c0-9.2-2.6-16.2-7.9-21c-5.3-4.8-12.8-7.1-22.6-7.1h-24.6V981.8z"/>
	<path class="st18" d="M1655.3,1059.2v-67.3h-72.6v67.3H1549V898.1h33.7v65h72.6v-65h33.7v161.2H1655.3z"/>
	<path class="st18" d="M1801.2,1020.8h-56.6l-12.4,38.4h-33.9l56-161.2h39.6l56,161.2h-36.5L1801.2,1020.8z M1751.8,994.8h42.2
		l-20-63.2h-2L1751.8,994.8z"/>
	<path class="st18" d="M1892.8,1059.2h-33.7V898.1h67.7c8.9,0,16.8,1.2,23.9,3.6c7.1,2.4,13.1,5.8,18,10.3
		c4.9,4.5,8.7,9.9,11.3,16.3c2.6,6.4,4,13.6,4,21.6c0,5.1-0.7,10.1-1.9,14.8c-1.3,4.7-3.2,9.1-5.7,13.1c-2.5,4-5.6,7.5-9.2,10.5
		c-3.7,3.1-7.8,5.5-12.4,7.4l34,63.7h-38.2l-30-58.4h-27.6V1059.2z M1892.8,974.9h29.6c8.6,0,15.2-2.2,19.9-6.5
		c4.7-4.3,7-10.4,7-18.2c0-3.8-0.6-7.2-1.9-10.3c-1.3-3.1-3.1-5.7-5.4-7.9c-2.3-2.2-5.2-3.8-8.6-5c-3.4-1.2-7.2-1.7-11.3-1.7h-29.3
		V974.9z"/>
	<path class="st18" d="M1999.6,1059.2V898.1h39.8l44.6,108.3h2l44.7-108.3h39.7v161.2H2139V951.4h-1.8l-41,98.5h-22.5l-41.1-98.5
		h-1.8v107.8H1999.6z"/>
	<path class="st18" d="M2282.4,1020.8h-56.6l-12.4,38.4h-33.9l56-161.2h39.6l56,161.2h-36.5L2282.4,1020.8z M2233.1,994.8h42.2
		l-20-63.2h-2L2233.1,994.8z"/>
	<path class="st18" d="M2408.8,1063.4c-11.7,0-22.2-1.9-31.6-5.9c-9.3-3.9-17.3-9.5-23.8-16.8c-6.5-7.3-11.5-16.2-15-26.7
		c-3.5-10.5-5.3-22.3-5.3-35.4s1.8-24.9,5.3-35.4c3.5-10.5,8.5-19.3,15-26.6c6.5-7.3,14.4-12.9,23.8-16.8c9.3-3.9,19.9-5.9,31.6-5.9
		c9.5,0,18.4,1.5,26.7,4.5c8.3,3,15.5,7.2,21.7,12.6c6.2,5.4,11.2,11.7,15,19.1c3.8,7.4,6,15.5,6.6,24.2h-32.9
		c-0.8-4.6-2.3-8.8-4.5-12.6c-2.2-3.8-4.9-7-8.1-9.7c-3.2-2.7-6.9-4.8-11.1-6.2c-4.2-1.5-8.6-2.2-13.4-2.2c-6.3,0-12,1.3-17.1,3.8
		c-5.1,2.5-9.4,6.2-13,10.9c-3.6,4.8-6.3,10.5-8.2,17.3c-1.9,6.8-2.8,14.4-2.8,22.9c0,8.5,0.9,16.1,2.8,22.9
		c1.9,6.8,4.6,12.6,8.2,17.3c3.6,4.7,7.9,8.4,13,11c5.1,2.6,10.8,3.9,17.2,3.9c4.8,0,9.3-0.7,13.5-2.1c4.2-1.4,7.9-3.3,11.1-5.9
		c3.2-2.5,5.9-5.6,8-9.2c2.2-3.6,3.7-7.6,4.5-12.1h32.8c-0.7,8.7-2.9,16.7-6.6,23.9c-3.8,7.2-8.7,13.4-14.9,18.6
		c-6.1,5.2-13.3,9.2-21.6,12.1C2427.4,1061.9,2418.5,1063.4,2408.8,1063.4z"/>
	<path class="st18" d="M2536.3,1059.2v-59.3l-56.2-101.9h36.5l35.5,67.5h2l35.4-67.5h36.5L2570,999.9v59.3H2536.3z"/>
</g>
<path class="st17" d="M772.7,900.5C772.7,900.5,772.6,900.5,772.7,900.5c-18.8,0-36.5-8.6-48-23.3L562.2,670.5
	c-20.9-26.5-16.3-65,10.3-85.8c26.5-20.9,65-16.3,85.8,10.3l114.6,145.8l299.4-378.1c21-26.5,59.4-30.9,85.9-10s30.9,59.4,10,85.9
	L820.6,877.3C809,892,791.4,900.5,772.7,900.5z"/>
<g>
	<polygon class="st18" points="1059,576.2 1059,576.3 1059.6,575.6 	"/>
	<path class="st18" d="M1171.7,548.8l-89.4,113.4c-15,19.1-23.2,42.7-23.2,67v94c0,148.9-111.1,278.1-259.5,291.6
		c-169.8,15.5-312.9-118.4-312.9-285v-368h507.1l78.4-99.1c12.6-15.9,31.4-23.7,50.2-23c-2-0.2-3.3-0.2-3.3-0.2H423.6
		c-59.1,4.8-59.1,61.3-59.1,61.3v420.7c0,214.9,162.7,399.4,376.9,415.5c239.4,18.1,439.9-171.6,439.9-407.2V552.1
		C1181.3,547,1174.8,544.8,1171.7,548.8z"/>
</g>
</svg>
